<?xml version="1.0" encoding="utf-8"?>
<!-- Generator: Adobe Illustrator 15.0.0, SVG Export Plug-In  -->
<!DOCTYPE svg PUBLIC "-//W3C//DTD SVG 1.1//EN" "http://www.w3.org/Graphics/SVG/1.1/DTD/svg11.dtd" [
	<!ENTITY ns_flows "http://ns.adobe.com/Flows/1.0/">
]>
<svg version="1.1"
	 xmlns="http://www.w3.org/2000/svg" xmlns:xlink="http://www.w3.org/1999/xlink" xmlns:a="http://ns.adobe.com/AdobeSVGViewerExtensions/3.0/"
	 x="0px" y="0px" width="807px" height="139px" viewBox="-3.43 -3.275 807 139"
	 overflow="visible" enable-background="new -3.43 -3.275 807 139" xml:space="preserve">
<defs>
</defs>
<path d="M27.147,22.49h-7.384v31.089c0,3.421,0.987,4.741,2.778,4.741c1.728,0,3.873-0.973,5.135-2.443l1.337,1.184
	c-3.585,3.911-7.809,7.143-13.481,7.143c-8.171,0-10.028-5.81-10.028-12.008V22.49H0v-1.384c9.263-3.349,13.487-7.283,17.531-15.522
	h2.232v13.873h7.384V22.49z"/>
<path d="M68.196,23.385v36.409c0,12.577-5.621,20.748-17.499,20.963c-1.526,0.022-4.981,0.042-4.981,0.042v-1.111
	c0,0,3.706-0.607,4.75-1.153c2.811-1.384,2.824-5.593,2.824-7.152V29.588c0-2.767-1.596-3.945-4.844-4.417v-1.787H68.196z M60.837,0
	c4.23,0,7.622,3.12,7.622,6.942c0,3.82-3.391,6.897-7.622,6.897c-4.207,0-7.605-3.077-7.605-6.897C53.231,3.12,56.63,0,60.837,0z"/>
<path d="M127.244,55.326c0,3.197,0.738,3.758,1.987,3.758c1.07,0,2.605-0.823,2.605-0.823l0.984,0.997c0,0-3.958,5.82-10.761,5.82
	c-6.671,0-8.81-6.582-8.81-6.582c-4.044,3.179-8.763,6.282-14.129,6.282c-6.118,0-10.31-4.336-10.31-9.965
	c0-10.551,16.985-14.056,23.721-16.096V31.48c0-3.771-1.17-6.137-5.204-6.137c-2.524,0-4.313,1.305-4.313,3.098
	c0,1.959,1.95,1.676,1.79,5.584c-0.125,3.001-3.91,5.515-7.362,5.515c-4.311,0-7.359-2.289-7.359-6.841
	c0-6.377,8.085-10.297,19.208-10.297c15.643,0,17.956,6.145,17.956,14.886V55.326z M112.53,42.092
	c-3.325,1.541-9.046,3.629-9.046,9.647c0,3.291,1.961,5.072,5.368,4.325c1.936-0.451,2.958-1.007,3.678-1.728V42.092z"/>
<path d="M146.16,63.208v-1.157c3.772-0.477,5.205-2.257,5.205-5.051V29.588c0-2.767-1.432-4.417-5.205-4.902v-1.301h19.248v6.845
	h0.17c1.083-1.957,2.326-3.858,3.838-5.289c1.899-1.778,3.967-2.539,6.945-2.539c3.677,0,6.655,1.94,6.655,6.548
	c0,3.75-2.791,6.521-6.739,6.521c-4.133,0-4.319-2.964-7.535-2.964c-1.726,0-2.624,1.477-2.624,4.921v15.67
	c0,5.712,0.898,8.2,6.115,8.761v1.35H146.16z"/>
<path d="M193.795,63.208v-1.769c3.237-0.503,4.853-1.646,4.853-4.439V13.445c0-2.792-1.615-3.91-4.853-4.41v-1.79h19.75v34.263
	l7-6.037c3.665-3.218,5.717-5.569,5.717-7.198c0-1.647-2.052-3.102-4.378-3.102v-1.787h17.97v1.787
	c-3.121,0.312-4.596,1.159-8.72,4.855l-6.328,6.533l14.64,20.64c1.159,1.637,3.562,3.874,5.714,4.24v1.769h-23.022V61.92
	c1.522-0.481,2.521-0.912,2.521-2.209c0-1.545-1.358-3.593-3.228-6.21l-6.375-8.713l-1.51,1.047V57c0,2.793,1.597,3.936,4.837,4.439
	v1.769H193.795z"/>
<path d="M258.252,48.531h1.965c1.082,5.707,5.745,11.757,12.938,11.757c3.591,0,5.197-2.209,5.197-4.323
	c0-7.097-20.827-11.362-20.827-21.641c0-7.676,5.753-11.922,14.746-11.922c5.551,0,9.051,1.818,11.396,1.818
	c2.063,0,2.611-0.917,2.962-1.818h1.98v12.726h-1.98c-2.255-4.898-6.103-9.785-11.676-9.785c-2.888,0-4.49,1.305-4.49,3.901
	c0,5.883,21.551,9.319,21.551,22.392c0,6.77-7.005,12.566-15.269,12.566c-7.276,0-9.52-2.939-13.467-2.939
	c-1.443,0-2.165,0.797-3.061,1.944h-1.965V48.531z"/>
<path d="M380.609,59.569c-2.216,0-2.216-2.033-2.216-3.383V36.69c0-10.615-8.109-12.076-16.875-12.076
	c-6.405,0-17.249,2.235-17.249,10.628c0,2.84,1.943,5.707,5.652,5.707c3.627,0,6.357-2.279,6.357-5.302
	c0-1.772-0.668-2.569-1.317-3.34c-0.527-0.625-1.021-1.217-1.021-2.254c0-2.181,2.875-3.357,5.582-3.357
	c3.922,0,5.669,2.11,5.669,6.839l-0.103,7.017l-4.497,1.074c-8.3,1.824-18.625,4.09-17.534,14.421
	c0.562,5.086,4.166,8.121,9.649,8.121c4.037,0,8.485-1.774,12.738-4.933c1.259,3.228,3.899,4.933,7.644,4.933
	c3.087,0,6.373-2.073,9.122-3.986l0.212-1.135L380.609,59.569z M364.958,53.446c0,3.49-2.251,4.614-4.846,4.614
	c-3.104,0-4.928-2.8-4.928-5.042c0-4.917,5.288-8.654,9.774-9.759V53.446z"/>
<path enable-background="new    " d="M394.155,61.992c4.143,0,4.22-2.708,4.22-5.806V31.348c0-2.906-1.118-4.512-4.22-4.512v-1.296
	h17.709v4.928h0.16c1.729-2.749,5.531-5.991,11.757-5.991c7.348,0,11.402,3.797,11.402,10.59v21.12c0,3.097,0.109,5.806,4.252,5.806
	v1.246h-21.083v-1.246c3.276,0,3.36-2.708,3.36-5.806V38.153c0-5.106-0.192-8.1-3.983-8.1c-2.762,0-5.864,2.588-5.864,4.925v21.208
	c0,3.097,0.095,5.519,3.365,5.519l-0.012,1.533h-21.062V61.992z"/>
<path enable-background="new    " d="M489.823,54.342V7.245h-20.357v1.25c4.581,0,6.893,1.188,6.893,5.582v15.609h-0.218
	c-2.641-3.16-5.319-4.097-8.698-4.097c-11.768,0-17.286,9.515-17.286,19.324c0,10.371,4.148,19.314,15.545,19.314
	c4.83,0,8.583-2.362,11.415-6.026h0.154v5.052h17.376V62.27C491.185,62.193,489.823,59.354,489.823,54.342z M476.623,51.116
	c0,5.654-2.917,8.708-5.659,8.708c-6.457,0-6.457-9.622-6.457-15.376c0-4.316,0-14.423,6.54-14.423c2.544,0,5.577,1.14,5.577,6.575
	V51.116z"/>
<path d="M560.44,22.914v2.931h-7.04v26.276c0,3.328,0,7.024,4.194,7.024c1.986,0,4.697-1.544,5.345-3.269h1.156
	c-1.612,3.987-5.293,7.845-10.322,7.845c-2.891,0-7.657-1.73-7.657-8.736V25.845h-6.27v-1.619
	c7.535-2.698,10.066-6.273,12.192-13.316h1.362v12.003H560.44z"/>
<path d="M597.275,62.656c0,13.384-8.486,18.26-17.247,18.729c-2.513,0.121,3.686-1.932,6.044-3.708
	c1.085-0.82,3.944-3.019,3.944-9.591V36.354c0-5.559-1.895-5.559-3.153-5.559c-0.97,0-2.14,0.345-3.038,0.686l-0.359-0.972
	l13.81-5.468V62.656z M593.601,6.561c2.428,0,4.4,1.792,4.4,3.999c0,2.192-1.972,3.993-4.4,3.993c-2.402,0-4.35-1.801-4.35-3.993
	C589.251,8.353,591.199,6.561,593.601,6.561z"/>
<path d="M649.938,53.019c0,3.676,0,6.285,2.28,6.285c1.421,0,3.489-2.143,4.651-3.186v1.419c-2.466,3.458-5.569,6.831-9.354,6.831
	c-3.861,0-4.842-2.928-4.842-5.961c-4.034,2.667-7.195,5.961-12.675,5.961c-6.199,0-9.628-4.156-9.628-9.554
	c0-9.151,14.954-12.404,22.304-15.339c0-6.139-0.451-11.442-7.35-11.442c-2.98,0-6.032,1.556-6.032,4.844
	c0,3.901-0.906,5.767-3.655,5.767c-2.562,0-3.719-1.791-3.719-3.93c0-2.206,2.626-9.124,14.838-9.124
	c13.182,0,13.182,7.595,13.182,9.882V53.019z M642.673,41.813c-6.007,2.221-15.007,5.077-15.007,11.284
	c0,3.273,2.402,6.696,6.385,6.696c2.775,0,6.54-2.447,8.622-3.991V41.813z"/>
<path d="M685.108,33.418h0.192c1.986-2.917,5.391-7.83,10.15-7.83c2.698,0,4.567,0.896,4.798,3.881
	c0.174,2.306-1.657,4.385-4.162,4.371c-2.866,0-3.251-2.771-5.191-2.771c-2.113,0-5.788,3.735-5.788,9.512V52.52
	c0,6.625,0,9.802,7.445,9.802v0.887h-20.903v-0.96c4.124-0.087,6.199-1.175,6.199-5.965v-19.93c0-5.559-1.89-5.559-3.167-5.559
	c-0.959,0-2.134,0.345-3.032,0.686l-0.412-1.049l13.87-5.31V33.418z"/>
<path d="M727.807,42.904c0,0,12.739-11.681,12.733-12.909c-0.07-1.905-1.889-2.212-3.211-2.212v-1.051h16.284v0.995
	c-5.948,0-8.742,1.889-12.057,5.438l-7.125,7.163l12.751,14.485c6.136,6.945,7.58,7.249,11.416,7.249v1.146h-19.464v-1.076
	c0.981,0,2.787-0.374,2.787-1.92c0-1-0.636-1.805-1.279-2.47L727.807,42.904z M727.699,56.284c0,4.79,2.106,5.708,6.206,5.778v1.146
	H714.24V61.97c4.149-0.105,6.225-0.897,6.225-5.687V18.996c0-5.567,0.507-9.551-3.713-10.11c-1.703-0.238-3.289-0.298-3.289-0.298
	V7.63h14.235V56.284z"/>
<path d="M796.774,38.088h-0.399c-1.35-5.484-4.985-10.056-12.006-10.056c-3.231,0-6.828,1.653-6.828,4.981
	c0,8.906,22.201,7.744,22.201,20.425c0,6.686-6.918,10.929-13.741,10.929c-2.613,0-5.473-0.573-8.093-1.229
	c-0.527-0.162-1.638-0.409-2.229-0.409c-0.849,0-1.902,0.409-2.076,1.065h-1.183V50.719h0.38
	c0.809,5.727,6.816,11.202,13.554,11.202c3.688,0,6.932-1.957,6.932-5.55c0-9.544-20.942-8.25-20.942-19.836
	c0-6.716,5.307-10.946,12.476-10.946c1.889,0,3.339,0.403,5.113,0.896c1.098,0.247,2.273,0.636,3.354,0.636
	c1.156,0,2.005-0.636,2.371-1.531h1.118V38.088z"/>
<path fill="#F58327" d="M251.238,112.354h8.241c4.953,0,8.671,3.098,8.671,9.419c0,5.52-2.835,9.631-8.671,9.631h-8.241V112.354z
	 M255.438,127.878h3.748c2.437,0,4.766-1.489,4.766-5.707c0-3.843-1.34-6.294-5.513-6.294h-3V127.878z"/>
<path fill="#F58327" d="M279.405,112.354H293.7v3.523h-10.092v4.082h9.263v3.255h-9.263v4.664h10.306v3.525h-14.508V112.354z"/>
<path fill="#F58327" d="M307.948,125.081c0,2.53,1.984,3.521,4.231,3.521c1.473,0,3.719-0.428,3.719-2.376
	c0-2.051-2.861-2.401-5.671-3.144c-2.84-0.748-5.704-1.843-5.704-5.416c0-3.895,3.695-5.76,7.148-5.76
	c3.989,0,7.657,1.732,7.657,6.132h-4.07c-0.135-2.291-1.768-2.879-3.772-2.879c-1.34,0-2.894,0.559-2.894,2.16
	c0,1.467,0.912,1.653,5.702,2.877c1.392,0.348,5.673,1.23,5.673,5.554c0,3.494-2.756,6.104-7.95,6.104
	c-4.228,0-8.189-2.081-8.135-6.773H307.948z"/>
<path fill="#F58327" d="M330.795,112.354h4.202v19.05h-4.202V112.354z"/>
<path fill="#F58327" d="M360.846,129.244c-1.475,1.892-3.4,2.61-5.247,2.61c-5.917,0-9.396-4.401-9.396-9.896
	c0-5.65,3.479-10.052,9.396-10.052c3.905,0,7.601,2.396,8.056,6.718h-4.013c-0.484-2.106-2.063-3.199-4.042-3.199
	c-3.775,0-5.193,3.199-5.193,6.533c0,3.173,1.418,6.376,5.193,6.376c2.729,0,4.309-1.467,4.549-4.105h-4.229v-3.122h8.031v10.298
	h-2.678L360.846,129.244z"/>
<path fill="#F58327" d="M375.683,112.354h4.175l7.977,12.776h0.054v-12.776h3.935v19.05h-4.201l-7.95-12.751h-0.056v12.751h-3.935
	V112.354z"/>
<path fill="#F58327" d="M433.446,129.244c-1.473,1.892-3.398,2.61-5.241,2.61c-5.918,0-9.402-4.401-9.402-9.896
	c0-5.65,3.483-10.052,9.402-10.052c3.906,0,7.593,2.396,8.05,6.718h-4.016c-0.478-2.106-2.059-3.199-4.034-3.199
	c-3.777,0-5.198,3.199-5.198,6.533c0,3.173,1.421,6.376,5.198,6.376c2.724,0,4.307-1.467,4.545-4.105h-4.229v-3.122h8.033v10.298
	h-2.682L433.446,129.244z"/>
<path fill="#F58327" d="M448.285,112.354h10.304c3.428,0,5.596,2.375,5.596,5.26c0,2.237-0.91,3.92-3.024,4.772v0.054
	c2.061,0.531,2.646,2.534,2.781,4.458c0.083,1.196,0.056,3.436,0.806,4.506h-4.205c-0.511-1.205-0.455-3.041-0.671-4.562
	c-0.295-2.002-1.065-2.883-3.187-2.883h-4.199v7.445h-4.202V112.354z M452.487,120.973h4.606c1.87,0,2.885-0.8,2.885-2.72
	c0-1.844-1.016-2.644-2.885-2.644h-4.606V120.973z"/>
<path fill="#F58327" d="M484.512,111.906c5.912,0,9.394,4.401,9.394,10.052c0,5.495-3.482,9.896-9.394,9.896
	c-5.914,0-9.394-4.401-9.394-9.896C475.119,116.307,478.598,111.906,484.512,111.906z M484.512,128.333
	c3.774,0,5.191-3.203,5.191-6.376c0-3.334-1.417-6.533-5.191-6.533s-5.191,3.199-5.191,6.533
	C479.321,125.13,480.738,128.333,484.512,128.333z"/>
<path fill="#F58327" d="M521.328,124.195c0,5.152-3.054,7.659-8.168,7.659c-5.133,0-8.133-2.478-8.133-7.659v-11.841h4.203v11.841
	c0,2.086,0.534,4.139,3.93,4.139c3,0,3.966-1.309,3.966-4.139v-11.841h4.203V124.195z"/>
<path fill="#F58327" d="M533.276,112.354h8.617c4.768,0,6.61,3.017,6.61,6.112c0,3.093-1.842,6.109-6.61,6.109h-4.415v6.828h-4.203
	V112.354z M537.479,121.32h3.266c1.953,0,3.691-0.428,3.691-2.854c0-2.431-1.739-2.856-3.691-2.856h-3.266V121.32z"/>
</svg>
