<?xml version="1.0" encoding="utf-8"?>
<!-- Generator: Adobe Illustrator 15.0.0, SVG Export Plug-In  -->
<!DOCTYPE svg PUBLIC "-//W3C//DTD SVG 1.1//EN" "http://www.w3.org/Graphics/SVG/1.1/DTD/svg11.dtd" [
	<!ENTITY ns_flows "http://ns.adobe.com/Flows/1.0/">
]>
<svg version="1.1"
	 xmlns="http://www.w3.org/2000/svg" xmlns:xlink="http://www.w3.org/1999/xlink" xmlns:a="http://ns.adobe.com/AdobeSVGViewerExtensions/3.0/"
	 x="0px" y="0px" width="807px" height="139px" viewBox="-3.43 -3.387 807 139"
	 overflow="visible" enable-background="new -3.43 -3.387 807 139" xml:space="preserve">
<defs>
</defs>
<path fill="#F47821" d="M243.59,113.047c1.247,0,2.408,0.195,3.483,0.584c1.075,0.391,2.006,0.975,2.792,1.754
	c0.786,0.781,1.4,1.756,1.843,2.924c0.443,1.17,0.665,2.543,0.665,4.121c0,1.381-0.181,2.656-0.542,3.826
	c-0.362,1.17-0.908,2.18-1.64,3.031c-0.732,0.85-1.645,1.52-2.738,2.006c-1.094,0.488-2.381,0.73-3.863,0.73h-8.35v-18.977H243.59z
	 M243.292,128.516c0.614,0,1.21-0.098,1.789-0.293c0.578-0.193,1.093-0.518,1.545-0.969c0.452-0.453,0.813-1.041,1.084-1.768
	s0.407-1.613,0.407-2.658c0-0.957-0.095-1.82-0.285-2.592c-0.19-0.771-0.501-1.432-0.936-1.98c-0.434-0.549-1.008-0.971-1.721-1.262
	c-0.714-0.293-1.595-0.439-2.644-0.439h-3.036v11.961H243.292z"/>
<path fill="#F47821" d="M277.938,113.047v3.508h-10.22v4.066h9.38v3.244h-9.38v4.65h10.438v3.508h-14.694v-18.977H277.938z"/>
<path fill="#F47821" d="M292.388,127.346c0.234,0.443,0.546,0.803,0.935,1.076c0.389,0.275,0.845,0.479,1.369,0.611
	c0.524,0.133,1.066,0.199,1.626,0.199c0.379,0,0.786-0.029,1.22-0.092c0.434-0.062,0.84-0.182,1.22-0.359s0.696-0.42,0.949-0.73
	s0.38-0.705,0.38-1.184c0-0.514-0.167-0.93-0.501-1.248c-0.335-0.32-0.773-0.586-1.315-0.799c-0.542-0.211-1.157-0.398-1.844-0.557
	c-0.687-0.16-1.382-0.338-2.087-0.533c-0.723-0.176-1.428-0.393-2.115-0.65c-0.687-0.256-1.301-0.588-1.843-0.996
	s-0.98-0.918-1.315-1.529s-0.501-1.35-0.501-2.219c0-0.975,0.212-1.82,0.637-2.539c0.424-0.717,0.98-1.314,1.667-1.793
	s1.464-0.832,2.332-1.062c0.868-0.23,1.735-0.346,2.603-0.346c1.012,0,1.983,0.109,2.915,0.332c0.931,0.221,1.757,0.58,2.48,1.076
	c0.723,0.496,1.297,1.129,1.722,1.9c0.424,0.77,0.637,1.705,0.637,2.805h-4.121c-0.036-0.568-0.158-1.037-0.366-1.41
	c-0.208-0.371-0.484-0.664-0.827-0.877s-0.736-0.363-1.179-0.451s-0.926-0.133-1.45-0.133c-0.344,0-0.687,0.035-1.03,0.105
	c-0.344,0.072-0.655,0.195-0.936,0.373s-0.511,0.398-0.691,0.664c-0.181,0.266-0.271,0.604-0.271,1.01
	c0,0.373,0.072,0.674,0.217,0.904s0.429,0.443,0.854,0.637c0.425,0.195,1.012,0.391,1.762,0.586s1.73,0.443,2.941,0.744
	c0.361,0.07,0.863,0.199,1.505,0.385c0.641,0.186,1.278,0.482,1.911,0.891c0.632,0.408,1.179,0.953,1.64,1.635
	s0.691,1.555,0.691,2.617c0,0.869-0.172,1.676-0.515,2.42c-0.344,0.744-0.854,1.387-1.532,1.926
	c-0.678,0.541-1.518,0.961-2.521,1.264c-1.003,0.301-2.165,0.451-3.484,0.451c-1.066,0-2.101-0.129-3.104-0.385
	c-1.003-0.258-1.889-0.66-2.657-1.211c-0.769-0.549-1.378-1.248-1.83-2.1c-0.452-0.85-0.669-1.859-0.65-3.029h4.121
	C292.036,126.364,292.153,126.905,292.388,127.346z"/>
<path fill="#F47821" d="M319.091,113.047v18.977h-4.256v-18.977H319.091z"/>
<path fill="#F47821" d="M342.433,131.877c-0.922,0.381-1.853,0.572-2.792,0.572c-1.482,0-2.815-0.252-3.999-0.758
	c-1.184-0.504-2.182-1.199-2.996-2.086c-0.813-0.887-1.437-1.928-1.871-3.123c-0.434-1.195-0.65-2.484-0.65-3.867
	c0-1.418,0.217-2.732,0.65-3.947c0.434-1.213,1.058-2.271,1.871-3.176c0.813-0.904,1.812-1.611,2.996-2.127
	c1.184-0.514,2.517-0.77,3.999-0.77c0.994,0,1.956,0.145,2.887,0.438c0.931,0.293,1.771,0.723,2.521,1.289
	c0.75,0.568,1.369,1.268,1.857,2.1c0.488,0.834,0.786,1.791,0.895,2.871h-4.066c-0.253-1.062-0.742-1.861-1.464-2.393
	s-1.599-0.797-2.629-0.797c-0.958,0-1.771,0.182-2.44,0.545c-0.669,0.363-1.211,0.85-1.626,1.461
	c-0.416,0.611-0.719,1.307-0.908,2.088c-0.19,0.779-0.285,1.586-0.285,2.418c0,0.797,0.095,1.572,0.285,2.326
	c0.189,0.752,0.492,1.43,0.908,2.033c0.416,0.602,0.958,1.084,1.626,1.447c0.668,0.363,1.482,0.545,2.44,0.545
	c1.41,0,2.499-0.35,3.267-1.049c0.768-0.701,1.215-1.715,1.342-3.043h-4.284v-3.111h8.133v10.26h-2.711l-0.434-2.152
	C344.195,130.829,343.354,131.497,342.433,131.877z"/>
<path fill="#F47821" d="M363.876,113.047l8.079,12.73h0.054v-12.73h3.985v18.977h-4.256l-8.052-12.703h-0.054v12.703h-3.985v-18.977
	H363.876z"/>
<path fill="#F47821" d="M407.768,113.047v15.469h9.434v3.508h-13.69v-18.977H407.768z"/>
<path fill="#F47821" d="M431.95,113.047v18.977h-4.256v-18.977H431.95z"/>
<path fill="#F47821" d="M449.788,113.047l4.527,13.051h0.054l4.284-13.051h5.991v18.977h-3.985v-13.449h-0.054l-4.744,13.449h-3.28
	l-4.744-13.314h-0.054v13.314h-3.985v-18.977H449.788z"/>
<path fill="#F47821" d="M480.748,113.047v18.977h-4.256v-18.977H480.748z"/>
<path fill="#F47821" d="M491.077,116.555v-3.508h15.859v3.508h-5.802v15.469h-4.256v-15.469H491.077z"/>
<path fill="#F47821" d="M531.769,113.047v3.508h-10.22v4.066h9.38v3.244h-9.38v4.65h10.438v3.508h-14.694v-18.977H531.769z"/>
<path fill="#F47821" d="M551.315,113.047c1.247,0,2.408,0.195,3.483,0.584c1.075,0.391,2.006,0.975,2.792,1.754
	c0.786,0.781,1.4,1.756,1.843,2.924c0.443,1.17,0.665,2.543,0.665,4.121c0,1.381-0.181,2.656-0.542,3.826
	c-0.362,1.17-0.908,2.18-1.64,3.031c-0.732,0.85-1.645,1.52-2.738,2.006c-1.094,0.488-2.381,0.73-3.863,0.73h-8.35v-18.977H551.315z
	 M551.017,128.516c0.614,0,1.21-0.098,1.789-0.293c0.578-0.193,1.093-0.518,1.545-0.969c0.452-0.453,0.813-1.041,1.084-1.768
	s0.407-1.613,0.407-2.658c0-0.957-0.095-1.82-0.285-2.592c-0.19-0.771-0.501-1.432-0.936-1.98c-0.434-0.549-1.008-0.971-1.721-1.262
	c-0.714-0.293-1.595-0.439-2.644-0.439h-3.036v11.961H551.017z"/>
<path d="M27.183,22.528h-7.391v31.144c0,3.425,0.993,4.745,2.776,4.745c1.738,0,3.881-0.976,5.146-2.443l1.343,1.19
	c-3.588,3.91-7.832,7.148-13.496,7.148c-8.192,0-10.043-5.828-10.043-12.029V22.528H0v-1.388
	c9.276-3.357,13.518-7.295,17.558-15.556h2.234v13.908h7.391V22.528z"/>
<path d="M68.303,23.426v36.476c0,12.587-5.631,20.777-17.536,20.992c-1.523,0.01-4.977,0.045-4.977,0.045v-1.117
	c0,0,3.702-0.609,4.762-1.162c2.804-1.375,2.821-5.6,2.821-7.158V29.638c0-2.782-1.602-3.955-4.852-4.424v-1.788H68.303z M60.934,0
	c4.231,0,7.64,3.125,7.64,6.951c0,3.831-3.408,6.917-7.64,6.917c-4.22,0-7.617-3.086-7.617-6.917C53.317,3.125,56.714,0,60.934,0"/>
<path d="M127.454,55.427c0,3.193,0.733,3.752,1.98,3.752c1.078,0,2.624-0.812,2.624-0.812l0.982,0.987c0,0-3.961,5.839-10.788,5.839
	c-6.68,0-8.813-6.601-8.813-6.601c-4.051,3.193-8.779,6.291-14.162,6.291c-6.127,0-10.325-4.339-10.325-9.981
	c0-10.567,17.017-14.071,23.753-16.113v-7.256c0-3.78-1.162-6.145-5.202-6.145c-2.539,0-4.322,1.309-4.322,3.098
	c0,1.963,1.947,1.687,1.783,5.586c-0.112,3.019-3.915,5.535-7.368,5.535c-4.322,0-7.369-2.302-7.369-6.855
	c0-6.387,8.091-10.319,19.234-10.319c15.668,0,17.992,6.161,17.992,14.912V55.427z M112.706,42.157
	c-3.317,1.551-9.05,3.633-9.05,9.676c0,3.284,1.958,5.078,5.371,4.328c1.93-0.457,2.968-1.016,3.679-1.738V42.157z"/>
<path d="M146.388,63.32v-1.162c3.78-0.479,5.225-2.257,5.225-5.061V29.638c0-2.782-1.444-4.424-5.225-4.903v-1.309h19.285v6.854
	h0.169c1.083-1.969,2.324-3.864,3.848-5.292c1.896-1.794,3.983-2.556,6.962-2.556c3.679,0,6.658,1.952,6.658,6.562
	c0,3.758-2.799,6.533-6.759,6.533c-4.13,0-4.322-2.962-7.549-2.962c-1.715,0-2.617,1.479-2.617,4.914v15.702
	c0,5.732,0.902,8.215,6.121,8.779v1.359H146.388z"/>
<path d="M194.109,63.32v-1.789c3.255-0.497,4.863-1.63,4.863-4.435v-43.63c0-2.792-1.608-3.916-4.863-4.423V7.267h19.781v34.315
	l7.019-6.054c3.667-3.216,5.721-5.585,5.721-7.216c0-1.642-2.054-3.098-4.378-3.098v-1.788h17.987v1.788
	c-3.125,0.305-4.598,1.162-8.734,4.863l-6.342,6.534l14.658,20.684c1.174,1.63,3.588,3.887,5.732,4.237v1.789H222.5v-1.292
	c1.523-0.497,2.517-0.908,2.517-2.223c0-1.546-1.354-3.594-3.228-6.224l-6.381-8.711l-1.518,1.038v11.188
	c0,2.804,1.613,3.938,4.852,4.435v1.789H194.109z"/>
<path d="M258.676,48.611h1.964c1.077,5.716,5.766,11.77,12.954,11.77c3.6,0,5.207-2.2,5.207-4.327
	c0-7.109-20.858-11.369-20.858-21.671c0-7.685,5.755-11.95,14.76-11.95c5.574,0,9.084,1.816,11.419,1.816
	c2.065,0,2.601-0.908,2.968-1.816h1.986v12.751h-1.986c-2.246-4.903-6.122-9.795-11.69-9.795c-2.889,0-4.491,1.309-4.491,3.916
	c0,5.879,21.575,9.326,21.575,22.421c0,6.788-7.008,12.587-15.29,12.587c-7.295,0-9.535-2.939-13.496-2.939
	c-1.444,0-2.155,0.801-3.058,1.946h-1.964V48.611z"/>
<path d="M379.145,56.279c0,1.394,0,3.25,2.077,3.25c0.711,0,1.218-0.146,1.744-0.497v1.258c-2.68,1.935-6.065,4.113-9.271,4.113
	c-3.813,0-6.488-1.709-7.786-5.021c-3.464,2.764-7.972,5.021-12.638,5.021c-5.98,0-9.292-3.565-9.789-8.243
	c-1.326-12.587,14.28-13.417,22.162-15.673v-6.895c0-4.853-1.812-6.709-5.541-6.709c-2.759,0-5.456,1.202-5.456,3.222
	c0,2.206,2.347,2.285,2.347,5.597c0,3.329-3.024,5.45-6.5,5.45c-3.639,0-5.794-2.697-5.794-5.851
	c0-8.113,10.207-10.782,17.395-10.782c9.603,0,17.05,2.003,17.05,12.226V56.279z M364.781,43.331
	c-4.502,1.112-9.321,4.852-9.321,9.784c0,2.245,1.366,5.038,4.48,5.038c2.595,0,4.841-1.123,4.841-4.609V43.331z"/>
<path fill="none" stroke="#FFFFFF" stroke-width="0.5373" d="M379.145,56.279c0,1.394,0,3.25,2.077,3.25
	c0.711,0,1.218-0.146,1.744-0.497v1.258c-2.68,1.935-6.065,4.113-9.271,4.113c-3.813,0-6.488-1.709-7.786-5.021
	c-3.464,2.764-7.972,5.021-12.638,5.021c-5.98,0-9.292-3.565-9.789-8.243c-1.326-12.587,14.28-13.417,22.162-15.673v-6.895
	c0-4.853-1.812-6.709-5.541-6.709c-2.759,0-5.456,1.202-5.456,3.222c0,2.206,2.347,2.285,2.347,5.597c0,3.329-3.024,5.45-6.5,5.45
	c-3.639,0-5.794-2.697-5.794-5.851c0-8.113,10.207-10.782,17.395-10.782c9.603,0,17.05,2.003,17.05,12.226V56.279z M364.781,43.331
	c-4.502,1.112-9.321,4.852-9.321,9.784c0,2.245,1.366,5.038,4.48,5.038c2.595,0,4.841-1.123,4.841-4.609V43.331z"/>
<path d="M394.785,62.09c4.164,0,4.226-2.708,4.226-5.811V31.392c0-2.906-1.112-4.508-4.226-4.508v-1.309h17.739v4.942h0.169
	c1.721-2.753,5.541-5.998,11.77-5.998c7.368,0,11.419,3.792,11.419,10.607v21.152c0,3.103,0.102,5.811,4.243,5.811v1.247h-21.102
	V62.09c3.284,0,3.363-2.708,3.363-5.811V38.213c0-5.118-0.181-8.108-3.983-8.108c-2.771,0-5.879,2.59-5.879,4.932v21.242
	c0,3.103,0.09,5.535,3.374,5.535l-0.012,1.523h-21.101V62.09z"/>
<path fill="none" stroke="#FFFFFF" stroke-width="0.5373" d="M394.785,62.09c4.164,0,4.226-2.708,4.226-5.811V31.392
	c0-2.906-1.112-4.508-4.226-4.508v-1.309h17.739v4.942h0.169c1.721-2.753,5.541-5.998,11.77-5.998
	c7.368,0,11.419,3.792,11.419,10.607v21.152c0,3.103,0.102,5.811,4.243,5.811v1.247h-21.102V62.09c3.284,0,3.363-2.708,3.363-5.811
	V38.213c0-5.118-0.181-8.108-3.983-8.108c-2.771,0-5.879,2.59-5.879,4.932v21.242c0,3.103,0.09,5.535,3.374,5.535l-0.012,1.523
	h-21.101V62.09z"/>
<path d="M490.61,54.434c0,5.027,1.376,7.859,4.829,7.938v0.976h-17.395v-5.05h-0.163c-2.844,3.673-6.59,6.037-11.442,6.037
	c-11.396,0-15.561-8.965-15.561-19.347c0-9.834,5.529-19.363,17.304-19.363c3.374,0,6.065,0.953,8.74,4.102h0.192V14.099
	c0-4.401-2.291-5.585-6.895-5.585V7.267h20.391V54.434z M477.678,36.667c0-4.823-2.426-6.454-5.45-6.454
	c-6.41,0-6.41,9.98-6.41,14.308c0,5.829,0,15.262,6.319,15.262c2.765,0,5.541-3.143,5.541-8.582V36.667z"/>
<path fill="none" stroke="#FFFFFF" stroke-width="0.5373" d="M490.61,54.434c0,5.027,1.376,7.859,4.829,7.938v0.976h-17.395v-5.05
	h-0.163c-2.844,3.673-6.59,6.037-11.442,6.037c-11.396,0-15.561-8.965-15.561-19.347c0-9.834,5.529-19.363,17.304-19.363
	c3.374,0,6.065,0.953,8.74,4.102h0.192V14.099c0-4.401-2.291-5.585-6.895-5.585V7.267h20.391V54.434z M477.678,36.667
	c0-4.823-2.426-6.454-5.45-6.454c-6.41,0-6.41,9.98-6.41,14.308c0,5.829,0,15.262,6.319,15.262c2.765,0,5.541-3.143,5.541-8.582
	V36.667z"/>
<path d="M561.338,22.957v2.939h-7.042v26.314c0,3.335,0,7.036,4.209,7.036c1.986,0,4.694-1.552,5.349-3.272h1.151
	c-1.625,3.994-5.314,7.854-10.348,7.854c-2.889,0-7.65-1.738-7.65-8.751V25.896h-6.296v-1.63c7.56-2.703,10.088-6.28,12.232-13.338
	h1.354v12.029H561.338z"/>
<path d="M598.237,62.762c0,13.399-8.508,18.29-17.287,18.762c-2.505,0.113,3.701-1.941,6.054-3.715
	c1.089-0.824,3.966-3.035,3.966-9.608V36.425c0-5.574-1.896-5.574-3.159-5.574c-0.971,0-2.155,0.35-3.059,0.683l-0.338-0.976
	l13.823-5.479V62.762z M594.57,6.573c2.415,0,4.401,1.794,4.401,4.011c0,2.189-1.986,3.995-4.401,3.995
	c-2.426,0-4.39-1.806-4.39-3.995C590.18,8.367,592.144,6.573,594.57,6.573"/>
<path d="M650.99,53.114c0,3.673,0,6.291,2.251,6.291c1.444,0,3.515-2.15,4.699-3.193v1.416c-2.482,3.464-5.608,6.855-9.365,6.855
	c-3.882,0-4.864-2.951-4.864-5.969c-4.051,2.668-7.199,5.969-12.695,5.969c-6.217,0-9.625-4.181-9.625-9.58
	c0-9.163,14.94-12.424,22.32-15.363c0-6.149-0.451-11.465-7.379-11.465c-2.99,0-6.015,1.563-6.015,4.847
	c0,3.916-0.92,5.789-3.701,5.789c-2.527,0-3.69-1.789-3.69-3.927c0-2.218,2.612-9.157,14.861-9.157
	c13.203,0,13.203,7.617,13.203,9.901V53.114z M643.712,41.892c-6.037,2.218-15.025,5.078-15.025,11.29
	c0,3.284,2.404,6.72,6.393,6.72c2.776,0,6.545-2.46,8.632-4.006V41.892z"/>
<path d="M686.23,33.474h0.181c1.986-2.928,5.405-7.848,10.167-7.848c2.686,0,4.57,0.897,4.808,3.893
	c0.18,2.297-1.67,4.396-4.181,4.379c-2.85,0-3.245-2.776-5.208-2.776c-2.099,0-5.766,3.741-5.766,9.524v11.967
	c0,6.635,0,9.817,7.448,9.817v0.892h-20.943v-0.976c4.13-0.079,6.206-1.162,6.206-5.969v-19.95c0-5.574-1.896-5.574-3.165-5.574
	c-0.971,0-2.149,0.35-3.041,0.683l-0.418-1.055l13.914-5.321V33.474z"/>
<path d="M728.997,42.97c0,0,12.768-11.702,12.74-12.92c-0.067-1.907-1.89-2.217-3.228-2.217v-1.055h16.317v1.004
	c-5.958,0-8.757,1.884-12.08,5.438l-7.137,7.171l12.796,14.511c6.122,6.962,7.577,7.272,11.437,7.272v1.146h-19.521v-1.083
	c0.981,0,2.793-0.373,2.793-1.936c0-0.987-0.626-1.788-1.264-2.46L728.997,42.97z M728.884,56.375c0,4.807,2.099,5.715,6.206,5.8
	v1.146H715.4v-1.252c4.141-0.096,6.206-0.886,6.206-5.693V19.024c0-5.568,0.53-9.563-3.679-10.127
	c-1.715-0.226-3.329-0.294-3.329-0.294V7.645h14.286V56.375z"/>
<path d="M798.067,38.146h-0.417c-1.343-5.49-4.982-10.071-12.006-10.071c-3.238,0-6.838,1.653-6.838,4.999
	c0,8.926,22.218,7.758,22.218,20.453c0,6.697-6.923,10.957-13.755,10.957c-2.606,0-5.484-0.587-8.102-1.241
	c-0.531-0.158-1.625-0.4-2.234-0.4c-0.835,0-1.907,0.4-2.082,1.055h-1.179V50.801h0.383c0.807,5.732,6.821,11.228,13.575,11.228
	c3.701,0,6.939-1.969,6.939-5.563c0-9.563-20.977-8.254-20.977-19.866c0-6.736,5.315-10.974,12.514-10.974
	c1.862,0,3.317,0.417,5.106,0.897c1.1,0.254,2.262,0.643,3.357,0.643c1.162,0,2.009-0.643,2.37-1.54h1.128V38.146z"/>
</svg>
